<?xml version="1.0" standalone="no"?>
<!DOCTYPE svg PUBLIC "-//W3C//DTD SVG 20010904//EN"
 "http://www.w3.org/TR/2001/REC-SVG-20010904/DTD/svg10.dtd">
<svg version="1.0" xmlns="http://www.w3.org/2000/svg"
 width="480.000000pt" height="480.000000pt" viewBox="0 0 480.000000 480.000000"
 preserveAspectRatio="xMidYMid meet">
<metadata>
Created by potrace 1.14, written by Peter Selinger 2001-2017
</metadata>
<g transform="translate(0.000000,480.000000) scale(0.100000,-0.100000)"
fill="#000000" stroke="none">
<path d="M2120 4680 c-102 -12 -150 -22 -150 -31 0 -12 35 -11 100 1 29 6 141
11 249 11 187 1 193 2 136 15 -64 14 -228 16 -335 4z"/>
<path d="M2598 4650 c51 -21 16 -28 -145 -28 -133 0 -189 -4 -268 -21 -109
-23 -181 -47 -206 -68 -9 -7 -18 -11 -20 -8 -3 2 -18 -7 -34 -20 -29 -23 -29
-24 -7 -25 12 0 22 4 22 9 0 5 21 17 48 27 26 10 52 21 57 25 6 4 57 17 115
30 83 18 147 24 305 27 300 7 251 10 405 -18 87 -16 118 -25 130 -39 3 -4 46
-27 95 -51 50 -25 96 -50 102 -57 25 -23 84 -55 90 -49 8 7 -55 61 -101 88
-113 65 -267 124 -376 144 -19 3 -53 12 -75 19 -49 16 -171 29 -137 15z"/>
<path d="M1775 4615 c-147 -33 -447 -154 -403 -163 9 -2 27 3 40 11 24 16 213
85 250 92 11 2 26 9 33 15 8 7 24 11 37 9 13 -1 36 3 51 9 15 7 39 15 52 18
25 6 35 25 13 23 -7 -1 -40 -7 -73 -14z"/>
<path d="M1970 4591 c-62 -19 -124 -60 -204 -133 -65 -58 -37 -53 45 8 79 60
177 114 206 114 15 0 16 2 3 10 -17 11 -16 11 -50 1z"/>
<path d="M1712 4533 c-25 -28 -62 -96 -62 -113 0 -5 7 -10 15 -10 8 0 15 6 15
14 0 7 10 20 23 29 12 8 33 24 46 36 13 11 30 21 36 21 7 0 18 7 25 15 20 24
-22 19 -50 -5 -27 -24 -40 -25 -40 -5 0 8 4 15 9 15 5 0 11 7 15 15 8 23 -6
18 -32 -12z"/>
<path d="M1618 4478 c-9 -7 -23 -26 -32 -43 -8 -16 -15 -25 -16 -19 0 16 -45
34 -83 34 -23 0 -35 -6 -42 -23 -11 -22 -10 -22 75 -23 l85 -1 21 43 c22 45
20 53 -8 32z"/>
<path d="M1250 4400 c0 -6 -12 -16 -27 -23 -16 -6 -48 -24 -72 -39 -31 -20
-58 -28 -89 -28 -27 0 -41 -4 -37 -10 4 -6 16 -8 28 -4 20 6 20 5 8 -10 -28
-33 -54 -39 -175 -37 -65 0 -116 -2 -112 -6 4 -4 54 -6 111 -5 84 2 105 0 105
-11 0 -8 -27 -43 -61 -77 -33 -34 -77 -88 -97 -119 -20 -31 -43 -62 -49 -69
-7 -7 -13 -17 -13 -21 0 -4 -8 -16 -17 -27 -10 -10 -29 -39 -42 -64 -44 -83
-89 -153 -192 -300 -55 -78 -117 -185 -124 -213 -4 -15 -11 -27 -16 -27 -8 0
-26 -116 -20 -135 2 -5 7 -30 11 -55 5 -25 17 -70 26 -100 18 -59 19 -98 4
-225 -19 -170 -23 -292 -11 -391 11 -87 19 -110 60 -189 27 -49 58 -108 69
-130 12 -22 28 -65 37 -95 21 -69 77 -188 104 -219 12 -13 21 -20 21 -16 0 5
9 -1 21 -14 34 -37 32 -18 -5 55 -33 65 -34 69 -15 72 27 5 47 -22 113 -151
59 -114 66 -134 99 -290 11 -53 24 -97 28 -97 8 0 39 97 39 123 0 26 22 77 31
71 5 -3 25 -30 44 -60 19 -30 39 -54 44 -54 5 0 14 -15 21 -32 7 -18 17 -43
22 -55 6 -12 11 -36 12 -52 1 -17 7 -36 14 -43 10 -10 14 -8 18 10 4 12 10 22
15 22 5 0 9 10 10 23 0 12 4 31 8 42 7 18 8 18 27 -4 10 -13 31 -37 46 -54 15
-18 30 -39 34 -47 3 -8 40 -44 81 -80 119 -103 243 -223 243 -234 0 -27 -306
-356 -331 -356 -6 0 -37 -18 -69 -40 -32 -22 -61 -40 -64 -40 -3 0 -14 -6 -23
-14 -10 -8 -47 -36 -83 -63 -36 -26 -67 -50 -70 -53 -7 -7 -87 -61 -110 -75
-10 -5 -52 -29 -92 -52 -40 -24 -98 -57 -128 -74 -30 -18 -57 -35 -60 -39 -3
-4 -25 -17 -49 -30 -25 -12 -51 -29 -59 -36 -7 -8 -22 -14 -32 -14 -10 0 -22
-4 -25 -10 -4 -7 204 -10 617 -10 l623 0 -54 36 c-88 59 -134 75 -236 81 -100
6 -181 -5 -278 -38 -98 -33 -106 -26 -54 49 19 26 53 76 77 112 56 83 151 209
209 280 25 30 53 63 61 73 8 11 30 36 48 56 18 20 70 78 115 129 54 61 88 92
102 92 29 0 75 -50 75 -82 0 -15 5 -28 11 -30 5 -2 11 -10 13 -18 1 -8 8 -35
15 -60 9 -31 10 -45 2 -48 -6 -2 -11 -8 -11 -13 0 -6 4 -8 10 -4 9 5 19 -26
35 -104 4 -18 18 -50 32 -70 l25 -36 -7 45 c-4 25 -15 74 -25 110 -24 82 -36
170 -23 170 15 0 33 -23 34 -45 0 -11 3 -14 6 -7 3 8 10 5 22 -10 13 -16 30
-22 62 -23 24 -1 49 1 54 5 6 4 28 11 50 15 22 4 45 10 50 15 21 17 168 90
181 90 8 0 14 5 14 10 0 6 7 10 15 10 8 0 15 4 15 9 0 4 23 19 50 32 28 13 50
27 50 30 0 4 18 14 40 23 22 9 40 19 40 24 0 7 49 40 67 45 5 1 7 5 6 10 -2 4
4 7 12 7 8 0 15 5 15 11 0 5 5 7 10 4 6 -3 10 -1 10 4 0 6 7 11 15 11 8 0 15
4 15 8 0 5 11 14 25 20 21 10 25 9 25 -4 0 -8 5 -12 11 -8 8 4 8 9 0 17 -15
15 -14 27 4 27 8 0 15 4 15 9 0 5 9 13 20 16 11 3 20 12 20 19 0 15 55 48 65
38 5 -4 5 -2 1 5 -6 11 4 27 64 93 59 66 73 90 52 90 -4 0 -61 -51 -126 -114
-65 -63 -149 -136 -188 -162 -38 -27 -91 -65 -116 -84 -63 -48 -102 -71 -267
-155 -165 -84 -221 -106 -292 -112 l-53 -5 -83 79 c-96 91 -262 242 -320 293
-108 94 -229 227 -274 300 -54 89 -115 227 -128 290 -6 29 -33 125 -40 143 -4
9 -3 18 1 18 5 1 19 3 32 4 37 4 38 14 3 48 -39 38 -102 137 -95 148 3 5 24
-1 47 -12 87 -45 142 -54 332 -52 154 2 353 37 347 62 -4 20 41 50 76 51 45 0
95 -22 121 -55 l22 -28 58 28 c51 24 63 26 91 16 18 -6 36 -9 40 -6 5 3 14 0
22 -7 7 -7 24 -14 38 -14 14 -1 75 -9 135 -18 137 -19 189 -20 290 -2 155 28
295 85 363 148 68 61 93 81 99 75 22 -23 35 -299 16 -379 -15 -67 8 -64 36 5
19 45 23 50 33 33 10 -18 6 -89 -7 -134 -6 -16 -3 -22 9 -22 9 0 16 5 16 11 0
5 5 7 10 4 6 -3 10 -1 10 6 0 7 3 10 6 7 3 -4 1 -15 -5 -26 -6 -11 -8 -22 -4
-25 8 -9 43 38 43 56 0 17 46 57 64 57 7 0 24 13 39 28 21 22 27 38 27 73 0
53 7 64 42 78 33 12 72 72 82 125 10 52 -15 44 -30 -10 -16 -61 -23 -72 -62
-95 -33 -20 -87 -26 -102 -13 -2 3 8 15 23 27 19 15 35 46 52 102 14 44 25 86
25 93 0 20 23 9 35 -16 11 -25 41 -31 31 -6 -3 9 -6 22 -6 30 0 7 -11 16 -25
20 -29 7 -31 21 -10 50 8 12 11 24 8 28 -3 3 9 7 28 7 l34 2 -35 6 c-25 4 -36
12 -38 26 -3 25 32 65 58 65 20 0 60 -33 60 -48 0 -5 8 -24 18 -43 14 -28 17
-61 17 -194 -1 -204 4 -193 -167 -378 -21 -23 -38 -46 -38 -52 0 -5 -21 -31
-46 -57 -53 -55 -75 -59 -153 -28 -45 17 -52 18 -66 4 -8 -8 -15 -24 -15 -35
0 -22 32 -39 38 -21 2 7 10 12 18 12 10 0 11 -6 4 -26 -16 -42 -40 -218 -40
-293 0 -43 -5 -72 -13 -78 -24 -17 -92 -36 -124 -34 -28 1 -33 -2 -33 -20 0
-12 18 -39 40 -60 22 -22 40 -41 40 -44 0 -3 -10 -19 -22 -35 -12 -16 -18 -33
-14 -37 7 -8 29 15 51 52 9 15 15 16 32 6 12 -6 40 -11 62 -11 23 0 41 -4 41
-10 0 -5 -12 -36 -26 -67 -66 -144 -89 -191 -112 -228 -27 -43 -152 -290 -152
-301 0 -3 -6 -20 -14 -37 -51 -118 -68 -170 -86 -271 -5 -27 -14 -54 -20 -60
-5 -5 -10 -14 -10 -18 0 -4 459 -8 1020 -8 l1020 0 0 24 c0 15 -7 27 -19 31
-11 3 -68 35 -128 70 -59 36 -114 65 -120 65 -7 0 -13 4 -13 9 0 5 -17 15 -37
21 -21 7 -45 18 -53 25 -8 7 -34 21 -58 31 -23 10 -42 22 -42 26 0 5 -6 8 -14
8 -17 0 -264 126 -287 146 -8 8 -20 14 -26 14 -6 0 -13 3 -15 8 -1 4 -15 17
-30 28 -85 66 -102 86 -100 120 2 19 -1 34 -6 34 -4 0 -16 6 -26 13 -16 12
-17 16 -5 35 8 12 19 22 25 22 6 0 18 7 25 16 9 12 23 14 50 10 33 -5 37 -4
32 14 -3 11 2 35 10 52 8 18 13 45 10 60 -3 15 1 48 8 72 10 36 19 47 51 61
41 18 47 29 23 39 -12 4 -14 14 -9 43 8 47 10 49 55 56 31 5 38 2 49 -18 10
-19 17 -22 31 -14 11 5 19 20 19 34 0 18 -6 24 -27 27 -54 6 -103 152 -72 210
10 19 9 20 -13 15 -19 -5 -31 0 -48 18 -19 21 -21 28 -12 52 6 15 10 43 10 61
-1 18 4 38 10 44 15 15 55 3 91 -28 21 -18 39 -25 56 -22 19 4 25 0 30 -19 4
-18 11 -23 28 -21 33 5 35 38 3 38 -24 0 -26 3 -28 53 -1 28 -2 63 -2 77 -1
14 -10 37 -19 52 -15 21 -16 31 -7 47 6 12 18 21 28 21 9 0 29 7 44 14 23 12
29 12 35 1 13 -21 48 -23 47 -2 -3 61 -4 66 -19 61 -8 -4 -13 -10 -10 -14 9
-14 -35 -22 -50 -10 -18 15 -20 70 -2 71 26 3 53 -2 75 -13 18 -10 25 -8 37 8
12 15 16 16 23 6 7 -11 19 -10 63 4 30 9 59 17 64 18 15 2 22 25 17 56 -3 23
-9 27 -35 28 -22 0 -37 8 -47 24 -8 13 -28 35 -45 51 l-30 27 19 35 c15 28 17
37 6 50 -7 8 -20 15 -30 15 -17 0 -66 65 -107 143 -34 64 -16 156 28 142 10
-3 31 1 48 9 16 9 37 13 45 10 24 -9 102 25 116 52 12 21 11 27 -8 47 -12 13
-22 31 -22 40 0 14 -11 17 -65 17 -43 0 -65 4 -65 12 0 6 -7 20 -17 30 -13 14
-13 18 -2 18 11 0 11 2 -1 10 -8 5 -10 10 -4 10 5 0 19 8 30 18 10 10 40 28
66 39 52 25 125 98 146 146 12 28 42 148 42 169 0 11 -178 8 -208 -3 -29 -11
-76 6 -66 23 27 44 51 208 30 208 -5 0 -60 -5 -122 -11 -119 -12 -154 -5 -154
29 0 10 -9 33 -19 53 -11 19 -25 54 -32 77 -7 23 -18 47 -26 53 -7 6 -13 29
-13 50 0 28 -5 39 -19 44 -12 3 -23 19 -27 38 -3 18 -17 41 -29 53 -14 12 -25
38 -29 67 -6 41 -10 47 -31 47 -18 0 -29 9 -41 33 -29 57 -94 136 -125 153
-18 9 -28 21 -26 28 6 16 -11 36 -31 36 -18 0 -142 120 -142 137 0 7 -13 19
-30 28 -33 17 -39 32 -12 32 60 0 92 4 92 12 0 5 -31 9 -68 9 -69 0 -130 18
-164 49 -10 9 -21 13 -25 9 -4 -4 20 -33 54 -64 157 -146 173 -163 173 -178 0
-4 9 -17 19 -28 11 -12 38 -57 61 -101 22 -44 45 -87 49 -95 30 -55 65 -169
55 -179 -2 -2 -12 6 -23 17 -20 23 -48 31 -35 10 5 -7 -18 12 -49 43 -31 31
-57 62 -57 70 -1 17 -45 69 -60 69 -15 0 -12 -36 5 -50 8 -7 15 -19 15 -26 0
-8 4 -14 9 -14 5 0 37 -41 72 -92 34 -50 70 -99 78 -108 19 -20 63 -102 57
-107 -7 -7 -86 32 -86 42 0 6 -13 16 -30 22 -16 6 -30 8 -30 5 1 -13 27 -42
39 -42 6 0 14 -7 17 -15 4 -8 11 -15 18 -15 15 -1 86 -67 86 -81 0 -6 -23 9
-51 33 -28 23 -58 48 -67 53 -9 6 -25 18 -36 29 -29 25 -125 99 -146 111 -10
6 -25 17 -34 24 -9 8 -26 11 -41 7 -21 -5 -35 3 -87 53 -35 33 -67 56 -71 52
-12 -12 1 -33 82 -145 37 -51 74 -109 81 -127 8 -19 23 -42 33 -51 11 -10 16
-18 11 -18 -5 -1 1 -9 13 -19 12 -10 20 -21 17 -23 -2 -3 2 -11 11 -18 8 -7
15 -20 15 -29 0 -9 14 -31 31 -49 22 -23 29 -39 25 -55 -3 -12 -3 -17 0 -10 3
7 12 9 20 6 12 -4 13 -8 3 -14 -10 -6 -8 -13 6 -35 15 -24 16 -26 1 -21 -16 6
-155 100 -205 139 -25 19 -41 23 -41 11 0 -13 150 -173 191 -205 19 -15 20
-18 6 -18 -10 0 -20 6 -23 13 -2 7 -22 24 -44 37 -22 14 -40 30 -40 37 0 6
-13 19 -29 29 -15 9 -36 30 -45 45 -10 16 -21 29 -27 29 -5 0 -9 8 -9 18 0 9
-9 23 -21 30 -18 11 -24 11 -40 -4 -10 -9 -19 -24 -18 -33 0 -12 3 -11 9 4 6
13 7 -2 3 -42 -4 -43 -2 -68 7 -77 6 -9 9 -20 5 -26 -3 -5 -1 -10 4 -10 6 0
11 -15 10 -32 0 -18 -3 -27 -6 -19 -11 26 -136 187 -177 226 -122 117 -203
185 -219 185 -17 0 -18 -2 -6 -17 37 -49 59 -74 59 -69 0 3 15 -11 33 -31 52
-59 110 -148 181 -278 6 -11 16 -23 21 -27 6 -4 6 -8 1 -8 -4 0 -51 40 -103
89 -60 57 -99 88 -109 84 -9 -3 -11 -10 -6 -17 10 -13 68 -170 76 -208 11 -47
-9 -39 -23 10 -8 26 -24 70 -37 98 -13 28 -24 58 -24 67 0 10 -4 17 -9 17 -5
0 -12 12 -16 27 -3 15 -34 54 -68 87 -49 47 -63 56 -65 41 -2 -10 0 -20 5 -24
27 -17 96 -146 98 -180 0 -20 9 -54 18 -76 10 -22 23 -51 29 -65 6 -14 16 -36
23 -50 7 -14 15 -42 19 -62 4 -21 11 -38 15 -38 10 0 24 -50 17 -58 -9 -8
-114 111 -142 162 -5 11 -20 26 -31 33 -20 13 -21 13 -16 -6 3 -12 9 -24 14
-27 5 -3 9 -14 9 -25 0 -10 4 -19 8 -19 5 0 14 -11 20 -25 13 -27 8 -32 -11
-12 -21 21 -77 113 -77 125 0 7 -4 12 -9 12 -5 0 -23 19 -40 42 -17 23 -31 38
-32 32 0 -5 -5 2 -10 15 -6 15 -13 21 -19 15 -11 -11 5 -90 25 -120 7 -11 32
-55 54 -98 l41 -77 -27 15 c-16 8 -37 23 -48 33 -42 39 -186 144 -210 153 -22
8 -25 7 -25 -12 0 -18 -10 -12 -56 35 -52 53 -74 67 -74 50 0 -3 7 -15 17 -25
9 -10 14 -21 11 -24 -3 -3 -23 15 -43 40 -42 52 -65 60 -57 21 2 -14 8 -25 12
-25 10 0 28 -89 31 -150 3 -78 -1 -112 -12 -108 -6 2 -10 7 -10 11 0 4 -8 21
-19 39 -10 18 -28 53 -40 78 -12 25 -26 52 -31 60 -5 8 -18 35 -30 60 -12 25
-30 56 -40 69 l-19 24 0 -31 c0 -17 4 -33 9 -36 5 -3 12 -23 16 -43 4 -21 11
-43 17 -50 5 -7 12 -27 15 -45 3 -18 8 -37 13 -43 4 -5 11 -37 15 -70 4 -33
10 -64 15 -70 11 -16 19 -56 9 -49 -5 3 -9 -6 -9 -20 0 -14 -4 -26 -10 -26 -5
0 -10 5 -10 11 0 5 -6 7 -12 3 -7 -4 -10 -4 -6 1 11 11 -12 36 -25 28 -6 -3
-7 -1 -3 5 11 18 -12 52 -34 52 -11 0 -20 5 -20 10 0 6 5 10 12 10 9 0 8 3 -1
13 -11 10 -15 9 -19 -3 -3 -10 -10 -3 -18 20 l-13 35 6 -40 c6 -36 5 -39 -10
-26 -10 7 -17 10 -17 6 0 -5 -14 12 -32 36 -17 24 -40 52 -50 63 -10 11 -18
24 -18 29 0 9 -44 70 -69 97 -13 13 -14 11 -8 -19 4 -18 7 -39 7 -47 0 -7 7
-20 16 -28 8 -9 16 -25 17 -36 1 -11 5 -20 9 -20 4 0 8 -8 8 -18 0 -10 9 -36
19 -57 10 -22 17 -48 16 -58 -2 -9 0 -15 6 -12 13 8 11 -46 -2 -65 -9 -13 -10
-12 -5 3 3 11 2 16 -4 12 -6 -3 -10 -15 -10 -26 0 -11 3 -18 8 -16 4 3 8 -18
10 -46 2 -29 8 -55 14 -58 6 -4 7 -12 2 -20 -10 -17 -6 -57 9 -84 14 -25 18
-42 22 -84 l3 -33 -28 33 c-72 84 -96 109 -107 109 -7 0 -13 7 -13 15 0 8 -5
15 -11 15 -5 0 -7 -6 -4 -12 4 -7 -1 -4 -9 6 -9 11 -16 26 -16 33 0 7 -6 13
-14 13 -7 0 -22 12 -31 28 -10 15 -33 41 -51 59 -18 17 -38 41 -44 53 l-11 21
-18 -23 -18 -22 -14 22 c-8 12 -18 22 -22 22 -5 0 -15 7 -23 15 -8 8 -21 12
-29 9 -8 -4 -15 -1 -15 6 0 6 5 8 10 5 6 -3 10 -1 10 4 0 6 -8 11 -18 11 -24
0 -52 31 -52 56 0 14 -3 15 -9 6 -6 -10 -12 -7 -24 12 -10 14 -17 30 -17 36 0
5 -4 10 -10 10 -5 0 -10 7 -10 16 0 8 -5 12 -11 9 -10 -7 -4 -60 10 -80 4 -5
8 -20 9 -33 1 -19 -2 -21 -14 -12 -8 7 -14 17 -14 22 0 5 -11 26 -25 46 -14
20 -25 42 -25 49 0 7 -11 37 -25 67 -14 30 -25 57 -25 60 0 3 -11 29 -24 58
-14 29 -30 72 -38 96 -7 23 -16 42 -20 42 -5 0 -8 9 -8 19 0 11 -4 23 -10 26
-19 12 -10 -54 21 -142 17 -48 35 -106 40 -128 5 -22 17 -55 25 -73 8 -18 16
-43 17 -55 0 -12 5 -25 10 -28 5 -4 13 -28 18 -55 5 -26 18 -65 28 -85 11 -21
22 -55 25 -76 3 -21 3 -29 0 -19 -7 22 -34 52 -35 39 0 -4 -5 1 -10 12 -7 14
-8 8 -4 -24 3 -24 13 -51 23 -58 15 -13 15 -13 -3 -4 -21 9 -96 88 -127 132
-66 92 -109 175 -135 262 -7 26 -18 47 -24 47 -14 0 -9 -133 8 -187 6 -24 8
-43 4 -43 -8 0 -31 44 -31 61 0 5 -9 29 -21 52 -11 23 -22 49 -24 57 -6 27
-26 73 -29 69 -5 -5 -16 -93 -24 -199 -5 -65 -10 -85 -22 -85 -19 0 -30 58
-28 145 3 178 -3 344 -13 328 -12 -21 -23 -288 -12 -288 5 0 10 -30 11 -67 2
-38 7 -111 12 -163 5 -61 4 -97 -2 -101 -7 -4 -6 -24 2 -55 6 -27 11 -59 11
-72 -1 -13 6 -39 14 -59 15 -37 11 -52 -16 -56 -8 -2 -21 -6 -29 -11 -12 -7
-13 -6 -3 4 12 13 8 19 -58 90 -29 30 -66 102 -98 183 -33 86 -50 155 -31 125
6 -10 16 -18 23 -18 9 0 9 2 0 8 -6 4 -13 21 -15 37 -2 18 -9 30 -18 30 -15 0
-39 61 -39 100 -1 29 -46 233 -54 241 -17 17 -5 -140 18 -236 14 -58 27 -114
29 -125 6 -34 24 -95 61 -209 19 -60 35 -118 35 -128 0 -10 5 -18 11 -18 5 0
7 -4 4 -10 -3 -5 -3 -10 2 -10 10 0 47 -89 40 -96 -6 -6 -64 61 -134 155 -45
61 -73 85 -73 63 0 -6 20 -41 45 -79 25 -37 45 -75 45 -84 0 -9 11 -50 24 -90
23 -70 24 -89 8 -89 -11 0 -62 85 -62 104 0 9 -4 16 -10 16 -5 0 -10 9 -10 20
0 11 -5 20 -12 20 -6 0 -9 3 -5 6 7 8 -31 82 -48 92 -7 4 -15 21 -18 37 -2 17
-5 2 -6 -32 0 -35 -5 -63 -11 -63 -5 0 -13 0 -17 0 -5 0 -9 5 -9 10 -1 6 -2
11 -3 13 -3 4 -12 298 -11 352 1 27 5 52 10 55 9 6 -5 107 -18 123 -31 41 -55
229 -38 305 13 55 122 237 177 295 33 35 59 69 59 80 0 4 15 32 34 61 18 29
37 62 40 74 4 12 11 22 14 22 4 0 16 16 26 35 11 19 25 35 33 35 7 0 13 4 13
9 0 5 9 13 21 16 23 8 42 47 27 56 -6 4 -6 19 0 40 6 19 11 28 11 20 1 -8 13
4 27 25 47 69 158 174 187 176 15 1 27 8 27 15 0 7 5 13 11 13 5 0 7 5 3 11
-4 7 0 9 14 5 15 -5 20 -2 18 10 0 9 6 19 14 21 13 4 13 3 0 -6 -12 -9 -11
-11 7 -11 20 0 41 22 41 43 0 5 4 12 8 15 4 4 4 2 0 -5 -13 -24 15 -23 63 2
28 14 73 30 101 36 27 6 50 15 50 20 0 13 -28 10 -75 -6 -22 -8 -48 -15 -58
-15 -10 0 -16 -4 -13 -9 4 -5 -4 -7 -16 -3 -21 5 -21 5 -1 13 30 11 38 29 14
29 -12 0 -21 -5 -21 -10z m-15 -40 c3 -5 1 -10 -4 -10 -6 0 -11 5 -11 10 0 6
2 10 4 10 3 0 8 -4 11 -10z m2145 -671 c0 -6 -4 -7 -10 -4 -5 3 -10 11 -10 16
0 6 5 7 10 4 6 -3 10 -11 10 -16z m180 -265 c0 -4 -8 0 -17 9 -10 10 -30 27
-45 38 -16 11 -28 27 -28 36 0 8 18 -4 45 -30 25 -25 45 -49 45 -53z m50 -31
c0 -12 -2 -12 -15 1 -8 8 -15 17 -15 20 0 3 7 3 15 0 8 -4 15 -13 15 -21z m44
-16 c10 -4 16 -10 13 -13 -8 -9 -47 15 -47 29 0 8 3 9 8 1 4 -6 16 -14 26 -17z
m-1176 -332 c-3 -3 -9 2 -12 12 -6 14 -5 15 5 6 7 -7 10 -15 7 -18z m62 -47
c0 -15 -15 -8 -28 12 -12 19 -11 20 8 8 11 -7 20 -16 20 -20z m-106 -100 c51
-51 123 -120 159 -152 37 -33 66 -60 64 -62 -1 -1 -45 -12 -97 -23 -87 -18
-161 -39 -201 -55 -14 -6 -15 12 -15 161 1 92 -2 180 -7 196 -4 15 -5 27 -2
27 3 0 48 -42 99 -92z m583 45 c-3 -10 -5 -2 -5 17 0 19 2 27 5 18 2 -10 2
-26 0 -35z m-390 -19 c-9 -9 -28 6 -21 18 4 6 10 6 17 -1 6 -6 8 -13 4 -17z
m-1580 -16 c-3 -8 -6 -5 -6 6 -1 11 2 17 5 13 3 -3 4 -12 1 -19z m107 -160
c19 -29 48 -66 65 -82 36 -34 43 -63 12 -46 -11 5 -31 10 -46 10 -19 0 -32 11
-55 46 -16 25 -32 60 -36 78 -3 17 -10 36 -15 41 -4 6 -11 35 -15 65 l-6 55
31 -57 c17 -32 46 -81 65 -110z m1556 127 c7 -9 8 -15 2 -15 -5 0 -12 7 -16
15 -3 8 -4 15 -2 15 2 0 9 -7 16 -15z m-1700 -54 c0 -9 20 -51 45 -94 25 -43
43 -82 40 -87 -4 -6 1 -13 10 -16 16 -6 105 -118 105 -132 0 -5 -15 -16 -32
-25 -24 -11 -28 -16 -14 -16 11 -1 27 6 37 15 17 15 39 12 39 -5 0 -4 -25 -19
-56 -34 -30 -15 -52 -31 -49 -36 3 -5 56 -9 118 -9 75 1 133 -4 177 -16 36 -9
80 -18 99 -21 19 -2 39 -9 44 -14 6 -6 17 -11 24 -11 11 0 11 4 2 23 -7 12
-17 25 -23 29 -7 5 -5 8 6 8 22 0 48 -27 48 -51 0 -10 4 -19 8 -19 5 0 17 -39
27 -87 10 -49 22 -98 26 -111 5 -13 4 -32 -2 -46 -9 -20 -27 -28 -99 -46 -187
-46 -384 -23 -535 62 -49 27 -61 39 -63 63 l-4 28 29 -17 c15 -10 36 -27 46
-39 12 -14 21 -17 28 -10 7 7 6 15 -3 24 -23 24 -68 125 -68 152 0 30 3 32 33
16 21 -12 21 -12 4 14 -26 40 -76 184 -67 194 5 4 4 28 -2 53 -11 44 -19 278
-11 293 7 12 33 -13 33 -32z m1760 24 c0 -8 -4 -15 -9 -15 -13 0 -22 16 -14
24 11 11 23 6 23 -9z m-723 -104 c14 -25 29 -48 33 -51 4 -3 19 -26 34 -53 15
-26 32 -44 38 -41 10 6 37 -24 38 -42 0 -12 -87 -84 -102 -84 -4 0 -8 8 -8 17
0 18 -6 36 -46 153 -14 41 -29 89 -33 105 -4 17 -11 41 -16 55 -8 25 -8 25 14
6 11 -10 33 -40 48 -65z m-308 -228 c42 -31 95 -74 118 -95 24 -21 49 -38 57
-38 8 0 37 -25 66 -56 61 -68 56 -88 -14 -53 -40 20 -49 21 -73 9 -16 -7 -41
-14 -58 -16 -37 -5 -88 -25 -97 -38 -4 -6 -10 -7 -14 -3 -4 4 -3 12 4 19 17
17 -2 44 -36 51 -24 5 -30 12 -35 39 -3 18 -23 65 -46 104 -22 38 -50 95 -62
125 -12 30 -30 73 -41 97 -10 24 -21 58 -25 75 -5 29 3 23 88 -66 51 -54 126
-123 168 -154z m-339 180 c0 -7 5 -13 10 -13 6 0 10 -6 10 -12 0 -7 25 -47 55
-88 55 -74 57 -100 6 -63 -31 23 -101 150 -96 176 2 9 -1 17 -6 17 -5 0 -9 8
-9 17 0 15 2 14 15 -3 8 -10 15 -25 15 -31z m884 -40 c4 -38 3 -63 -3 -63 -5
0 -11 31 -13 70 -4 84 7 79 16 -7z m-70 2 c-4 -8 -8 -15 -10 -15 -2 0 -4 7 -4
15 0 8 4 15 10 15 5 0 7 -7 4 -15z m549 -42 c40 -26 85 -56 101 -66 l28 -18
-6 27 -7 27 28 -18 c42 -28 56 -44 102 -114 37 -59 47 -81 37 -81 -1 0 -17 5
-35 11 -17 6 -42 8 -56 5 -21 -5 -24 -10 -18 -39 3 -17 11 -45 18 -62 29 -67
27 -79 -18 -122 -100 -97 -211 -136 -392 -137 -122 0 -316 19 -347 35 -25 13
-51 121 -52 214 -1 28 -7 54 -14 60 -7 6 -15 27 -19 48 -5 35 -4 37 26 43 17
4 31 11 31 16 0 5 12 8 28 6 24 -3 27 -8 29 -40 2 -32 -1 -38 -17 -38 -11 0
-20 -4 -20 -10 0 -5 -8 -10 -17 -11 -11 0 -13 -3 -6 -6 7 -2 43 4 80 15 123
36 189 52 214 51 13 0 18 -3 12 -6 -22 -8 -14 -31 13 -37 31 -8 29 -40 -3 -44
-28 -4 -33 -34 -16 -87 24 -72 79 -110 153 -106 l25 1 -25 -11 c-14 -7 -41
-15 -60 -19 -33 -7 -32 -8 16 -9 36 -1 65 6 102 25 29 14 52 30 52 35 0 12 -1
12 -44 -6 -32 -14 -52 -6 -26 10 18 11 60 83 60 102 0 10 5 25 10 33 8 13 12
12 25 -7 9 -13 23 -23 31 -23 16 0 54 57 54 82 0 25 -39 58 -69 59 l-26 0 23
10 c30 12 21 25 -38 53 -65 32 -90 37 -168 36 -37 -1 -75 -1 -85 -1 -18 0
-138 -59 -190 -93 -32 -21 -47 -14 -29 14 7 11 12 31 12 45 0 28 17 34 22 8 2
-13 9 -8 25 20 12 20 27 37 34 37 6 0 29 13 52 29 35 24 175 75 262 94 11 3
21 5 23 6 2 0 36 -20 75 -46z m-546 -5 c-3 -8 -6 -5 -6 6 -1 11 2 17 5 13 3
-3 4 -12 1 -19z m-960 -30 c26 -12 71 -46 101 -75 30 -29 61 -53 69 -53 7 0
13 -5 13 -11 0 -12 -1 -12 -85 16 -33 11 -66 28 -73 37 -7 10 -18 18 -24 18
-15 0 -68 60 -68 77 0 18 13 16 67 -9z m-370 -10 c-3 -8 -6 -5 -6 6 -1 11 2
17 5 13 3 -3 4 -12 1 -19z m-120 -210 c-3 -7 -5 -2 -5 12 0 14 2 19 5 13 2 -7
2 -19 0 -25z m2223 14 c0 -5 -7 -9 -15 -9 -8 0 -15 4 -15 9 0 4 7 8 15 8 8 0
15 -4 15 -8z m-923 -59 c-3 -10 -5 -4 -5 12 0 17 2 24 5 18 2 -7 2 -21 0 -30z
m670 15 c-3 -8 -6 -5 -6 6 -1 11 2 17 5 13 3 -3 4 -12 1 -19z m-1800 -30 c-3
-8 -6 -5 -6 6 -1 11 2 17 5 13 3 -3 4 -12 1 -19z m1715 -53 c0 -5 -5 -11 -11
-13 -6 -2 -11 4 -11 13 0 9 5 15 11 13 6 -2 11 -8 11 -13z m-1731 -7 c1 -7 3
-25 5 -40 2 -19 -2 -28 -12 -28 -10 0 -14 12 -14 40 0 22 5 40 10 40 6 0 11
-6 11 -12z m1629 -23 c7 -8 19 -15 26 -15 8 0 14 -7 14 -14 0 -12 -6 -13 -30
-5 -16 6 -27 15 -24 20 3 5 0 9 -5 9 -6 0 -11 5 -11 10 0 15 16 12 30 -5z
m-598 -19 c43 -21 50 -35 35 -66 -14 -27 -37 -38 -37 -17 0 10 -14 15 -52 17
-89 4 -95 3 -134 -24 -46 -31 -57 -26 -21 12 18 19 23 31 17 43 -6 10 -4 23 6
37 12 18 23 20 82 18 38 -2 83 -10 104 -20z m196 -102 c-10 -10 -28 6 -28 24
0 15 1 15 17 -1 9 -9 14 -19 11 -23z m1197 -199 c-1 -31 -25 -48 -26 -18 0 16
-1 16 -8 -2 -5 -11 -6 -23 -4 -28 5 -9 -63 -77 -70 -70 -9 9 35 98 62 125 32
33 46 30 46 -7z m655 -855 c-6 -11 -15 -20 -20 -20 -6 0 -10 9 -10 20 0 13 7
20 20 20 18 0 19 -3 10 -20z"/>
<path d="M1098 2393 c7 -3 16 -2 19 1 4 3 -2 6 -13 5 -11 0 -14 -3 -6 -6z"/>
<path d="M1117 2352 c-20 -21 -22 -64 -6 -95 17 -32 51 -67 60 -62 4 3 10 39
14 80 4 41 12 75 17 75 5 0 6 5 3 10 -10 17 -71 11 -88 -8z"/>
<path d="M1332 2358 c-28 -7 -32 -11 -22 -23 7 -8 21 -15 31 -15 28 0 23 -19
-7 -30 -21 -8 -25 -15 -19 -33 3 -12 9 -32 12 -44 3 -13 23 -43 45 -68 35 -39
45 -45 79 -45 45 0 77 27 110 93 11 20 24 37 29 37 12 0 13 40 2 56 -12 18
-145 64 -184 64 -20 0 -38 4 -40 8 -1 5 -18 5 -36 0z m102 -204 c4 -11 2 -12
-14 -1 -11 6 -20 15 -20 19 0 12 28 -3 34 -18z"/>
<path d="M1210 2137 c0 -28 71 -77 112 -77 22 0 21 1 -6 15 -16 8 -44 29 -63
45 -38 34 -43 36 -43 17z"/>
<path d="M2735 2491 c-2 -4 14 -12 36 -18 21 -5 39 -7 39 -4 0 9 -70 29 -75
22z"/>
<path d="M2293 2354 c-36 -15 -48 -30 -33 -39 5 -3 10 -19 10 -35 0 -32 27
-49 37 -22 4 9 9 19 12 22 9 8 41 71 41 81 0 13 -29 10 -67 -7z"/>
<path d="M4343 4322 c-74 -3 -96 -16 -45 -26 21 -4 90 -2 155 3 4 1 7 5 7 10
0 13 -35 16 -117 13z"/>
<path d="M4530 4313 c0 -21 20 -25 105 -25 86 0 105 4 105 25 0 9 -31 12 -105
12 -75 0 -105 -3 -105 -12z"/>
<path d="M310 4310 c0 -5 11 -10 25 -10 14 0 25 5 25 10 0 6 -11 10 -25 10
-14 0 -25 -4 -25 -10z"/>
<path d="M943 4313 c-47 -6 -41 -19 7 -15 22 2 40 8 40 13 0 5 -3 8 -7 7 -5 0
-23 -3 -40 -5z"/>
<path d="M4073 4309 c-13 -4 -5 -8 25 -14 26 -4 48 -3 54 3 12 12 -51 21 -79
11z"/>
<path d="M5 4300 c4 -6 11 -8 16 -5 14 9 11 15 -7 15 -8 0 -12 -5 -9 -10z"/>
<path d="M528 4303 c6 -2 18 -2 25 0 6 3 1 5 -13 5 -14 0 -19 -2 -12 -5z"/>
<path d="M3675 4300 c-3 -5 1 -10 10 -10 9 0 13 5 10 10 -3 6 -8 10 -10 10 -2
0 -7 -4 -10 -10z"/>
<path d="M3788 4303 c7 -3 16 -2 19 1 4 3 -2 6 -13 5 -11 0 -14 -3 -6 -6z"/>
<path d="M3591 4249 c-39 -15 -17 -21 54 -14 36 4 64 9 62 12 -10 9 -94 11
-116 2z"/>
<path d="M3830 4247 c-21 -10 -7 -12 89 -15 107 -3 132 0 119 14 -12 12 -183
13 -208 1z"/>
<path d="M4182 4251 c-10 -6 -3 -10 22 -15 41 -8 67 1 45 15 -18 11 -50 11
-67 0z"/>
<path d="M4375 4250 c-72 -12 2 -26 110 -21 35 1 38 3 23 15 -19 14 -71 17
-133 6z"/>
<path d="M4625 4250 c-39 -6 -39 -7 -14 -17 23 -10 61 -9 99 3 13 5 13 6 0 14
-16 11 -25 11 -85 0z"/>
<path d="M253 4239 c11 -7 23 -7 35 0 14 9 11 10 -18 10 -29 0 -32 -1 -17 -10z"/>
<path d="M418 4243 c7 -3 16 -2 19 1 4 3 -2 6 -13 5 -11 0 -14 -3 -6 -6z"/>
<path d="M568 4243 c12 -2 30 -2 40 0 9 3 -1 5 -23 4 -22 0 -30 -2 -17 -4z"/>
<path d="M1298 4237 c-29 -10 -99 -87 -91 -99 5 -9 49 25 81 62 20 23 142 22
240 -2 46 -11 86 -17 90 -14 9 10 -30 34 -78 47 -53 14 -210 18 -242 6z"/>
<path d="M1492 4155 c-17 -19 -18 -75 -3 -104 8 -14 11 -39 7 -65 -7 -46 10
-146 25 -146 5 0 9 -11 9 -25 0 -37 77 -185 96 -185 18 0 12 27 -16 75 -19 33
-53 162 -50 191 4 37 0 54 -14 54 -16 0 -31 79 -20 113 3 12 17 37 31 55 19
25 21 32 9 32 -9 0 -16 -4 -16 -10 0 -5 -4 -10 -10 -10 -5 0 -10 9 -10 20 0
23 -19 26 -38 5z"/>
<path d="M1015 4115 c-11 -8 -49 -36 -85 -63 -36 -27 -67 -57 -69 -67 -3 -18
-2 -18 20 -2 61 44 105 74 142 97 22 14 42 31 45 38 5 17 -30 15 -53 -3z"/>
<path d="M2090 4110 c0 -5 4 -10 9 -10 6 0 13 5 16 10 3 6 -1 10 -9 10 -9 0
-16 -4 -16 -10z"/>
<path d="M2130 4103 c0 -4 15 -14 33 -22 83 -35 182 -88 211 -113 23 -21 55
-32 63 -24 4 3 -1 6 -11 6 -9 0 -14 5 -11 10 3 6 0 10 -8 10 -8 0 -17 6 -20
14 -3 7 -52 36 -109 64 -111 54 -148 68 -148 55z"/>
<path d="M1140 4043 c-11 -14 -19 -31 -17 -37 2 -6 -5 -19 -15 -30 -22 -24
-23 -46 -3 -46 9 0 15 9 15 21 0 11 8 33 18 47 17 25 35 72 27 72 -2 0 -13
-12 -25 -27z"/>
<path d="M3010 4027 c0 -18 53 -73 58 -59 4 12 -37 70 -50 71 -5 1 -8 -5 -8
-12z"/>
<path d="M3130 3517 c0 -2 11 -25 24 -51 20 -39 25 -44 30 -29 8 24 -21 83
-40 83 -8 0 -14 -1 -14 -3z"/>
<path d="M3192 3400 c0 -14 2 -19 5 -12 2 6 2 18 0 25 -3 6 -5 1 -5 -13z"/>
<path d="M546 3257 c-5 -26 -6 -51 -2 -54 12 -13 17 6 14 53 l-3 49 -9 -48z"/>
<path d="M2296 3205 c4 -8 13 -15 21 -15 13 0 13 3 3 15 -7 8 -16 15 -21 15
-5 0 -6 -7 -3 -15z"/>
<path d="M4660 3180 c0 -5 4 -10 9 -10 6 0 13 5 16 10 3 6 -1 10 -9 10 -9 0
-16 -4 -16 -10z"/>
<path d="M1790 2926 c0 -8 5 -18 10 -21 6 -3 10 1 10 9 0 8 -4 18 -10 21 -5 3
-10 -1 -10 -9z"/>
<path d="M1810 2878 c0 -27 26 -99 33 -92 4 4 7 -8 7 -26 0 -26 3 -31 12 -22
8 8 7 22 -5 54 -10 24 -17 49 -17 57 0 7 -7 19 -15 27 -12 12 -15 12 -15 2z"/>
<path d="M4710 2810 c-9 -6 -10 -10 -3 -10 6 0 15 5 18 10 8 12 4 12 -15 0z"/>
<path d="M1587 2798 c7 -8 10 -18 6 -21 -3 -4 1 -7 10 -7 24 0 21 17 -5 31
-20 11 -21 10 -11 -3z"/>
<path d="M4630 2730 c-6 -11 -8 -20 -5 -20 3 0 15 9 27 20 18 17 19 20 5 20
-9 0 -21 -9 -27 -20z"/>
<path d="M701 2694 c0 -11 3 -14 6 -6 3 7 2 16 -1 19 -3 4 -6 -2 -5 -13z"/>
<path d="M1700 1614 c0 -28 84 -153 96 -141 9 9 -30 86 -65 127 -27 31 -30 32
-31 14z"/>
<path d="M1855 1530 c-3 -5 1 -10 10 -10 9 0 13 5 10 10 -3 6 -8 10 -10 10 -2
0 -7 -4 -10 -10z"/>
<path d="M3090 1515 c0 -8 2 -15 4 -15 2 0 6 7 10 15 3 8 1 15 -4 15 -6 0 -10
-7 -10 -15z"/>
<path d="M3061 1464 c0 -11 3 -14 6 -6 3 7 2 16 -1 19 -3 4 -6 -2 -5 -13z"/>
<path d="M4775 1460 c-3 -5 1 -10 9 -10 9 0 16 5 16 10 0 6 -4 10 -9 10 -6 0
-13 -4 -16 -10z"/>
<path d="M3001 1378 c-1 -11 -6 -15 -15 -12 -15 6 -32 -13 -21 -24 3 -3 10 0
15 8 8 12 10 11 10 -5 1 -17 2 -17 11 4 5 13 8 29 5 35 -2 6 -5 3 -5 -6z"/>
<path d="M2977 1306 c-4 -10 -1 -13 8 -9 8 3 12 9 9 14 -7 12 -11 11 -17 -5z"/>
<path d="M2292 1283 c-23 -8 -40 -18 -37 -22 6 -11 74 11 80 26 2 7 3 13 2 12
-1 0 -21 -7 -45 -16z"/>
<path d="M1722 1281 c-10 -6 -6 -11 17 -19 32 -11 40 -5 19 16 -14 14 -19 15
-36 3z"/>
<path d="M4330 1265 c-10 -12 -10 -15 3 -15 8 0 17 7 21 15 3 8 2 15 -3 15 -5
0 -14 -7 -21 -15z"/>
<path d="M2831 1074 c0 -11 3 -14 6 -6 3 7 2 16 -1 19 -3 4 -6 -2 -5 -13z"/>
<path d="M2771 1064 c0 -11 3 -14 6 -6 3 7 2 16 -1 19 -3 4 -6 -2 -5 -13z"/>
<path d="M2810 1068 c0 -9 -6 -18 -12 -21 -10 -3 -10 -7 -1 -17 9 -10 13 -7
19 14 3 15 4 30 0 33 -3 4 -6 -1 -6 -9z"/>
<path d="M4650 1029 c-14 -24 -9 -32 14 -23 17 7 23 44 6 44 -5 0 -14 -9 -20
-21z"/>
<path d="M2740 991 c0 -6 5 -13 10 -16 6 -3 10 1 10 9 0 9 -4 16 -10 16 -5 0
-10 -4 -10 -9z"/>
<path d="M2726 944 c-5 -14 -4 -15 9 -4 17 14 19 20 6 20 -5 0 -12 -7 -15 -16z"/>
<path d="M2656 883 c6 -4 14 -15 17 -23 5 -11 6 -9 4 4 -1 11 -9 21 -17 23
-10 3 -11 2 -4 -4z"/>
<path d="M2866 793 c-6 -14 -5 -15 5 -6 7 7 10 15 7 18 -3 3 -9 -2 -12 -12z"/>
<path d="M2490 789 c0 -5 5 -7 10 -4 6 3 10 8 10 11 0 2 -4 4 -10 4 -5 0 -10
-5 -10 -11z"/>
<path d="M2340 780 c-9 -6 -10 -10 -3 -10 6 0 15 5 18 10 8 12 4 12 -15 0z"/>
<path d="M4780 764 c0 -14 4 -23 10 -19 6 3 10 15 10 26 0 10 -4 19 -10 19 -5
0 -10 -12 -10 -26z"/>
<path d="M2268 753 c7 -3 16 -2 19 1 4 3 -2 6 -13 5 -11 0 -14 -3 -6 -6z"/>
<path d="M2803 722 c-18 -20 -30 -38 -28 -40 7 -7 67 57 63 68 -2 5 -17 -7
-35 -28z"/>
<path d="M2565 740 c-3 -5 -1 -10 4 -10 6 0 11 5 11 10 0 6 -2 10 -4 10 -3 0
-8 -4 -11 -10z"/>
<path d="M4730 730 c0 -5 4 -10 9 -10 6 0 13 5 16 10 3 6 -1 10 -9 10 -9 0
-16 -4 -16 -10z"/>
<path d="M4291 674 c0 -11 3 -14 6 -6 3 7 2 16 -1 19 -3 4 -6 -2 -5 -13z"/>
<path d="M2025 620 c3 -5 8 -10 11 -10 2 0 4 5 4 10 0 6 -5 10 -11 10 -5 0 -7
-4 -4 -10z"/>
<path d="M2385 621 c-6 -11 9 -23 19 -14 9 9 7 23 -3 23 -6 0 -12 -4 -16 -9z"/>
<path d="M2340 589 c0 -5 5 -7 10 -4 6 3 10 8 10 11 0 2 -4 4 -10 4 -5 0 -10
-5 -10 -11z"/>
<path d="M1730 580 c0 -5 7 -10 15 -10 8 0 15 5 15 10 0 6 -7 10 -15 10 -8 0
-15 -4 -15 -10z"/>
<path d="M2320 540 c-13 -11 -19 -20 -14 -20 13 1 61 40 48 40 -6 0 -21 -9
-34 -20z"/>
<path d="M2123 473 c9 -2 23 -2 30 0 6 3 -1 5 -18 5 -16 0 -22 -2 -12 -5z"/>
<path d="M4470 426 c0 -20 4 -35 8 -32 9 5 8 53 -1 63 -4 3 -7 -10 -7 -31z"/>
<path d="M1785 441 c-3 -5 -1 -12 4 -15 5 -3 11 1 15 9 6 16 -9 21 -19 6z"/>
<path d="M1790 395 c0 -9 -4 -14 -8 -11 -13 8 -21 -200 -12 -304 4 -43 2 -54
-8 -52 -8 1 -12 -3 -10 -10 3 -7 17 -14 32 -16 l27 -3 -7 88 c-9 105 -9 85 1
209 5 71 4 104 -4 108 -6 4 -11 0 -11 -9z"/>
<path d="M1876 385 c4 -8 8 -15 10 -15 2 0 4 7 4 15 0 8 -4 15 -10 15 -5 0 -7
-7 -4 -15z"/>
<path d="M4699 393 c-10 -59 -3 -106 11 -82 5 7 6 26 3 42 -4 19 -1 32 8 38
11 7 11 9 -3 9 -10 0 -19 -3 -19 -7z"/>
<path d="M1746 364 c-3 -9 -2 -23 4 -32 7 -14 9 -10 10 16 0 35 -5 41 -14 16z"/>
<path d="M2389 303 c-13 -16 -12 -17 4 -4 16 13 21 21 13 21 -2 0 -10 -8 -17
-17z"/>
<path d="M4548 286 c-22 -16 -24 -46 -3 -46 8 0 15 8 15 18 0 10 5 23 12 30
16 16 -3 15 -24 -2z"/>
<path d="M2203 135 c-86 -84 -131 -135 -120 -135 16 0 277 248 277 263 0 20
-32 -6 -157 -128z"/>
<path d="M4780 185 c0 -8 0 -18 -1 -22 0 -4 4 -9 10 -11 6 -2 11 8 11 22 0 14
-4 26 -10 26 -5 0 -10 -7 -10 -15z"/>
<path d="M1731 64 c0 -11 3 -14 6 -6 3 7 2 16 -1 19 -3 4 -6 -2 -5 -13z"/>
</g>
</svg>
